<svg xmlns="http://www.w3.org/2000/svg" width="1200" height="420" viewBox="0 0 1200 420" role="img" aria-labelledby="title desc">
  <title id="title">Agent Platform Report</title>
  <desc id="desc">三组办公 Agent 的商业覆盖、功能矩阵、统一任务测评与分级证据研究。</desc>

  <rect width="1200" height="420" rx="18" fill="#f7f8fa"/>
  <path d="M0 18C0 8 8 0 18 0H1182C1192 0 1200 8 1200 18V20H0Z" fill="#111318"/>
  <path d="M698 52V368" stroke="#d8dee8"/>

  <g id="title-block" font-family="-apple-system,BlinkMacSystemFont,'Segoe UI','PingFang SC',sans-serif">
    <text x="62" y="70" fill="#0a67d1" font-size="18" font-weight="700">OFFICE AGENT · INDUSTRY RESEARCH</text>
    <text x="62" y="148" fill="#111318" font-size="58" font-weight="720">Agent Platform</text>
    <text x="62" y="210" fill="#111318" font-size="58" font-weight="720">Report</text>
    <text x="62" y="260" fill="#4d5866" font-size="22">三组办公 Agent 的商业覆盖、功能矩阵与统一测评</text>
    <text x="62" y="296" fill="#4d5866" font-size="22">从产品能力到 FDE 商业机会，结论均保留证据边界</text>

    <g transform="translate(62 338)" font-family="ui-monospace,'SFMono-Regular',Menlo,monospace" font-size="17">
      <circle cx="6" cy="-5" r="6" fill="#19a66a"/>
      <text x="22" y="0" fill="#111318">PUBLIC RESEARCH</text>
      <text x="186" y="0" fill="#6a7481">/</text>
      <text x="208" y="0" fill="#111318">2026-08</text>
      <text x="306" y="0" fill="#6a7481">/</text>
      <text x="328" y="0" fill="#111318">EVIDENCE-GRADED</text>
    </g>
  </g>

  <g id="research-coordinates" transform="translate(742 56)" font-family="-apple-system,BlinkMacSystemFont,'Segoe UI','PingFang SC',sans-serif">
    <text x="0" y="0" fill="#6a7481" font-family="ui-monospace,'SFMono-Regular',Menlo,monospace" font-size="17">THREE PRODUCT ROUTES</text>

    <g transform="translate(0 28)">
      <rect width="396" height="62" rx="10" fill="#ffffff" stroke="#d8dee8"/>
      <rect width="6" height="62" rx="3" fill="#0a67d1"/>
      <text x="24" y="27" fill="#111318" font-size="21" font-weight="700">飞书 + 豆包工作</text>
      <text x="24" y="49" fill="#5b6573" font-size="17">组织知识 · 长任务 · 内容交付</text>
    </g>

    <g transform="translate(0 102)">
      <rect width="396" height="62" rx="10" fill="#ffffff" stroke="#d8dee8"/>
      <rect width="6" height="62" rx="3" fill="#19a66a"/>
      <text x="24" y="27" fill="#111318" font-size="21" font-weight="700">企业微信 + WorkBuddy</text>
      <text x="24" y="49" fill="#5b6573" font-size="17">浏览器 · 老系统 · 私有部署</text>
    </g>

    <g transform="translate(0 176)">
      <rect width="396" height="62" rx="10" fill="#ffffff" stroke="#d8dee8"/>
      <rect width="6" height="62" rx="3" fill="#111318"/>
      <text x="24" y="27" fill="#111318" font-size="21" font-weight="700">钉钉 + 千问办公</text>
      <text x="24" y="49" fill="#5b6573" font-size="17">专家套件 · 桌面 Agent · 电商</text>
    </g>

    <g transform="translate(0 262)" font-family="ui-monospace,'SFMono-Regular',Menlo,monospace">
      <g transform="translate(0 0)">
        <text x="0" y="28" fill="#111318" font-size="28" font-weight="700">59</text>
        <text x="0" y="52" fill="#6a7481" font-size="13">FULL SET</text>
      </g>
      <g transform="translate(82 0)">
        <text x="0" y="28" fill="#111318" font-size="28" font-weight="700">17</text>
        <text x="0" y="52" fill="#6a7481" font-size="13">KEY SET</text>
      </g>
      <g transform="translate(164 0)">
        <text x="0" y="28" fill="#111318" font-size="28" font-weight="700">16</text>
        <text x="0" y="52" fill="#6a7481" font-size="13">SECTORS</text>
      </g>
      <g transform="translate(258 0)">
        <text x="0" y="28" fill="#111318" font-size="28" font-weight="700">51</text>
        <text x="0" y="52" fill="#6a7481" font-size="13">EVIDENCE</text>
      </g>
      <g transform="translate(350 0)">
        <text x="0" y="28" fill="#111318" font-size="28" font-weight="700">3</text>
        <text x="0" y="52" fill="#6a7481" font-size="13">RUNS</text>
      </g>
    </g>
  </g>
</svg>
